<svg width="32" height="32" viewBox="0 0 32 32" fill="none" xmlns="http://www.w3.org/2000/svg">
  <!-- Background circle with gradient -->
  <defs>
    <linearGradient id="bgGradient" x1="0%" y1="0%" x2="100%" y2="100%">
      <stop offset="0%" style="stop-color:#4f46e5;stop-opacity:1" />
      <stop offset="100%" style="stop-color:#7c3aed;stop-opacity:1" />
    </linearGradient>
    <linearGradient id="docGradient" x1="0%" y1="0%" x2="100%" y2="100%">
      <stop offset="0%" style="stop-color:#ffffff;stop-opacity:1" />
      <stop offset="100%" style="stop-color:#f8fafc;stop-opacity:1" />
    </linearGradient>
  </defs>
  
  <!-- Background -->
  <circle cx="16" cy="16" r="15" fill="url(#bgGradient)" stroke="#3730a3" stroke-width="2"/>
  
  <!-- Document icon -->
  <path d="M10 8a1 1 0 0 1 1-1h6l3 3v10a1 1 0 0 1-1 1H11a1 1 0 0 1-1-1V8z" fill="url(#docGradient)" stroke="#64748b" stroke-width="0.5"/>
  <path d="M17 7v3h3" fill="none" stroke="#64748b" stroke-width="0.5"/>
  
  <!-- Upload arrow -->
  <path d="M16 12v6" stroke="#4f46e5" stroke-width="2" stroke-linecap="round"/>
  <path d="M13 15l3-3 3 3" stroke="#4f46e5" stroke-width="2" stroke-linecap="round" stroke-linejoin="round" fill="none"/>
  
  <!-- Progress dots -->
  <circle cx="13" cy="22" r="1" fill="#10b981"/>
  <circle cx="16" cy="22" r="1" fill="#10b981"/>
  <circle cx="19" cy="22" r="1" fill="#e5e7eb"/>
</svg>
